<svg xmlns="http://www.w3.org/2000/svg" version="1.1" xmlns:xlink="http://www.w3.org/1999/xlink" xmlns:svgjs="http://svgjs.dev/svgjs" width="1500" height="1382" viewBox="0 0 1500 1382"><g transform="matrix(1,0,0,1,-0.1659992719330603,0.5595141700404156)"><svg viewBox="0 0 268 247" data-background-color="#ffffff" preserveAspectRatio="xMidYMid meet" height="1382" width="1500" xmlns="http://www.w3.org/2000/svg" xmlns:xlink="http://www.w3.org/1999/xlink"><g id="tight-bounds" transform="matrix(1,0,0,1,0.029658536585372985,-0.09999999999999432)"><svg viewBox="0 0 267.94068292682925 247.2" height="247.2" width="267.94068292682925"><g><svg viewBox="0 0 267.94068292682925 247.2" height="247.2" width="267.94068292682925"><g><svg viewBox="0 0 267.94068292682925 247.2" height="247.2" width="267.94068292682925"><g id="textblocktransform"><svg viewBox="0 0 267.94068292682925 247.2" height="247.2" width="267.94068292682925" id="textblock"><g><svg viewBox="0 0 267.94068292682925 247.2" height="247.2" width="267.94068292682925"><g transform="matrix(1,0,0,1,0,0)"><svg width="267.94068292682925" viewBox="1 -37.89999999999999 166.65 150.75000000000003" height="247.2" data-palette-color="#000000"><svg></svg><svg></svg><svg></svg><g class="wordmark-text-0" data-fill-palette-color="primary" id="text-0"><path d="M3.2-35.9c0.433 0 1.793 0.067 4.08 0.2 2.28 0.133 6.77 0.2 13.47 0.2 6.7 0 10.75-0.1 12.15-0.3v0c0.367 0 0.617 0.1 0.75 0.3 0.133 0.2 0.2 0.383 0.2 0.55v0l0.3 4.05c0 0.833-0.05 1.357-0.15 1.57-0.1 0.22-0.317 0.33-0.65 0.33v0c-0.267 0-0.49-0.343-0.67-1.03-0.187-0.68-0.38-1.203-0.58-1.57v0c-0.5-0.867-1.95-1.3-4.35-1.3v0h-6.5c-0.8 0-1.29 0.157-1.47 0.47-0.187 0.32-0.28 1.23-0.28 2.73v0 2.45l-0.15 18.3-0.05 3.25c0 1.433 0.227 2.367 0.68 2.8 0.447 0.433 0.937 0.757 1.47 0.97 0.533 0.22 0.983 0.347 1.35 0.38v0c0.933 0.067 1.4 0.367 1.4 0.9v0c0 0.367-0.083 0.6-0.25 0.7-0.167 0.1-0.483 0.15-0.95 0.15v0l-5.55-0.4-5.1 0.35c-1.233 0-1.85-0.267-1.85-0.8v0c0-0.333 0.1-0.56 0.3-0.68 0.2-0.113 0.593-0.213 1.18-0.3 0.58-0.08 0.953-0.137 1.12-0.17v0c1.133-0.267 1.767-0.933 1.9-2v0c0.333-2.933 0.5-9.233 0.5-18.9v0l-0.05-8.95c0-0.633-0.183-1.027-0.55-1.18-0.367-0.147-1.583-0.22-3.65-0.22-2.067 0-3.69 0.067-4.87 0.2-1.187 0.133-1.88 0.257-2.08 0.37-0.2 0.12-0.44 0.363-0.72 0.73-0.287 0.367-0.52 0.79-0.7 1.27-0.187 0.487-0.313 0.88-0.38 1.18v0c-0.1 0.767-0.417 1.15-0.95 1.15v0c-0.367 0-0.55-0.283-0.55-0.85v0c0-1.333 0.083-2.543 0.25-3.63 0.167-1.08 0.26-1.703 0.28-1.87 0.013-0.167 0.03-0.277 0.05-0.33 0.013-0.047 0.03-0.13 0.05-0.25 0.013-0.113 0.037-0.197 0.07-0.25 0.033-0.047 0.077-0.11 0.13-0.19 0.047-0.087 0.103-0.147 0.17-0.18 0.067-0.033 0.15-0.067 0.25-0.1v0c0.2-0.067 0.517-0.1 0.95-0.1zM41.75-0.25v0l-3.55 0.25c-0.833 0-1.267-0.05-1.3-0.15-0.033-0.1-0.05-0.217-0.05-0.35v0c0-0.333 0.2-0.55 0.6-0.65v0c0.967-0.267 1.59-0.693 1.87-1.28 0.287-0.58 0.43-1.437 0.43-2.57v0l0.2-17.05v-2.45c0-4.533-0.1-7.3-0.3-8.3-0.2-1-0.8-1.5-1.8-1.5v0h-0.65l-0.2-0.05c-0.567 0-0.85-0.15-0.85-0.45 0-0.3 0.173-0.54 0.52-0.72 0.353-0.187 0.853-0.363 1.5-0.53 0.653-0.167 1.58-0.517 2.78-1.05 1.2-0.533 1.95-0.8 2.25-0.8v0c0.433 0 0.65 0.383 0.65 1.15v0c0 0.167-0.06 0.567-0.18 1.2-0.113 0.633-0.177 1.857-0.19 3.67-0.02 1.82-0.053 3.77-0.1 5.85-0.053 2.087-0.097 3.497-0.13 4.23v0c-0.067 1.4-0.1 2.383-0.1 2.95 0 0.567 0.133 0.85 0.4 0.85v0c0.067 0 0.41-0.31 1.03-0.93 0.613-0.613 1.463-1.23 2.55-1.85 1.08-0.613 2.237-0.92 3.47-0.92v0c2.7 0 4.8 0.8 6.3 2.4 1.5 1.6 2.25 4.083 2.25 7.45v0 7.25c0 0.9 0.167 1.6 0.5 2.1 0.333 0.5 0.717 0.767 1.15 0.8v0c1.8 0.167 2.7 0.517 2.7 1.05 0 0.533-0.517 0.8-1.55 0.8v0l-4.2-0.25-3.85 0.15c-0.767 0-1.15-0.167-1.15-0.5v0c0-0.6 0.45-0.9 1.35-0.9v0c0.333 0 0.64-0.183 0.92-0.55 0.287-0.367 0.43-0.933 0.43-1.7v0l0.05-1.3 0.05-7c0-2.033-0.617-3.793-1.85-5.28-1.233-1.48-2.66-2.22-4.28-2.22-1.613 0-3.253 0.65-4.92 1.95v0c-0.6 0.467-0.983 1.223-1.15 2.27-0.167 1.053-0.25 3.38-0.25 6.98v0 1.15c0 1.5 0.117 2.717 0.35 3.65v0c0.367 1.3 1.283 2 2.75 2.1v0c0.467 0.033 0.823 0.09 1.07 0.17 0.253 0.087 0.38 0.263 0.38 0.53v0c0 0.4-0.183 0.6-0.55 0.6v0l-1.3-0.05c-0.867-0.033-1.743-0.077-2.63-0.13-0.88-0.047-1.353-0.07-1.42-0.07zM76.5 0.95c-2.933 0-5.423-0.9-7.47-2.7-2.053-1.8-3.08-4.41-3.08-7.83 0-3.413 0.943-6.27 2.83-8.57 1.88-2.3 4.32-3.45 7.32-3.45v0c1.4 0 2.673 0.25 3.82 0.75 1.153 0.5 2.047 1.107 2.68 1.82 0.633 0.72 1.167 1.48 1.6 2.28v0c0.733 1.367 1.1 2.4 1.1 3.1v0c0 0.6-0.683 0.9-2.05 0.9v0h-12.85c-0.267 0-0.427 0.023-0.48 0.07-0.047 0.053-0.07 0.213-0.07 0.48v0c0 3.133 0.843 5.6 2.53 7.4 1.68 1.8 3.653 2.7 5.92 2.7v0c1.4 0 2.827-0.377 4.28-1.13 1.447-0.747 2.203-1.12 2.27-1.12v0c0.333 0 0.5 0.15 0.5 0.45v0c0 0.4-0.367 0.943-1.1 1.63-0.733 0.68-1.433 1.237-2.1 1.67v0c-1.6 1.033-3.483 1.55-5.65 1.55zM70.8-13.95v0l8.8-0.3c0.467 0 0.757-0.043 0.87-0.13 0.12-0.08 0.18-0.237 0.18-0.47v0c0-1-0.467-2.167-1.4-3.5-0.933-1.333-2.233-2-3.9-2-1.667 0-2.95 0.657-3.85 1.97-0.9 1.32-1.35 2.563-1.35 3.73v0c0 0.467 0.217 0.7 0.65 0.7z" fill="#000000" fill-rule="nonzero" stroke="none" stroke-width="1" stroke-linecap="butt" stroke-linejoin="miter" stroke-miterlimit="10" stroke-dasharray="" stroke-dashoffset="0" font-family="none" font-weight="none" font-size="none" text-anchor="none" style="mix-blend-mode: normal" data-fill-palette-color="primary" opacity="1"></path><path d="M5.7 32.8v0l-0.05-12.7c0-0.567-0.273-1.143-0.82-1.73-0.553-0.58-1.113-0.887-1.68-0.92-0.567-0.033-0.957-0.067-1.17-0.1-0.22-0.033-0.437-0.143-0.65-0.33-0.22-0.18-0.33-0.43-0.33-0.75 0-0.313 0.143-0.493 0.43-0.54 0.28-0.053 0.987-0.08 2.12-0.08v0h4.35l9.75-0.2c4.833 0 9.25 1.367 13.25 4.1v0c1.933 1.3 3.5 3.007 4.7 5.12 1.2 2.12 1.8 4.413 1.8 6.88 0 2.467-0.157 4.557-0.47 6.27-0.32 1.72-0.847 3.207-1.58 4.46-0.733 1.247-1.467 2.26-2.2 3.04-0.733 0.787-1.667 1.647-2.8 2.58-1.133 0.933-2.65 1.75-4.55 2.45-1.9 0.7-3.85 1.05-5.85 1.05v0l-12-0.25c-1.167 0-2.25 0.043-3.25 0.13-1 0.08-1.583 0.12-1.75 0.12v0c-0.8 0-1.2-0.217-1.2-0.65v0c0-0.267 0.06-0.457 0.18-0.57 0.113-0.12 0.363-0.23 0.75-0.33 0.38-0.1 0.653-0.183 0.82-0.25v0c0.533-0.233 1.027-0.677 1.48-1.33 0.447-0.647 0.67-1.287 0.67-1.92v0c0 0 0.017-4.517 0.05-13.55zM10 23.95l-0.1 9.6-0.05 10.65c0 1.567 0.167 2.683 0.5 3.35v0c0.167 0.3 0.483 0.517 0.95 0.65 0.467 0.133 1 0.283 1.6 0.45 0.6 0.167 1.293 0.36 2.08 0.58 0.78 0.213 1.803 0.32 3.07 0.32v0h1c2.267 0 4.2-0.327 5.8-0.98 1.6-0.647 3.133-1.67 4.6-3.07v0c2.467-2.367 3.7-6.2 3.7-11.5v0c0-2.667-0.523-5.083-1.57-7.25-1.053-2.167-2.43-3.9-4.13-5.2v0c-3.5-2.633-7.317-3.95-11.45-3.95v0h-2c-1.6 0-2.667 0.283-3.2 0.85v0c-0.267 0.267-0.423 0.5-0.47 0.7-0.053 0.2-0.12 0.59-0.2 1.17-0.087 0.587-0.13 1.097-0.13 1.53v0zM47.9 52v0c-3.933 0-5.9-1.667-5.9-5v0c0-2.4 1-4.05 3-4.95v0c1.667-0.7 4.217-1.333 7.65-1.9v0c0.1-0.033 0.233-0.06 0.4-0.08 0.167-0.013 0.343-0.037 0.53-0.07 0.18-0.033 0.32-0.067 0.42-0.1v0c0.233-0.1 0.35-0.333 0.35-0.7v0l0.1-2.6c0-1.9-0.55-3.277-1.65-4.13-1.1-0.847-2.167-1.27-3.2-1.27v0c-2.4 0-3.6 1-3.6 3v0l0.2 1.8c0 0.667-0.3 1-0.9 1v0c-0.467 0-0.983-0.083-1.55-0.25v0c-1.033-0.333-1.55-0.9-1.55-1.7v0c0-1.3 0.877-2.543 2.63-3.73 1.747-1.18 3.503-1.77 5.27-1.77 1.767 0 3.15 0.167 4.15 0.5 1 0.333 1.743 0.707 2.23 1.12 0.48 0.42 0.853 0.98 1.12 1.68v0c0.333 0.833 0.5 2.14 0.5 3.92 0 1.787-0.04 3.37-0.12 4.75-0.087 1.387-0.13 2.647-0.13 3.78 0 1.133 0.133 2.057 0.4 2.77 0.267 0.72 0.583 1.18 0.95 1.38 0.367 0.2 0.733 0.317 1.1 0.35v0c0.9 0.067 1.35 0.333 1.35 0.8v0c0 0.7-1.05 1.05-3.15 1.05v0c-0.867 0-1.607-0.233-2.22-0.7-0.62-0.467-1.063-0.927-1.33-1.38-0.267-0.447-0.417-0.67-0.45-0.67-0.033 0-0.167 0.11-0.4 0.33-0.233 0.213-0.557 0.47-0.97 0.77-0.42 0.3-0.897 0.6-1.43 0.9v0c-1.233 0.733-2.5 1.1-3.8 1.1zM54 40.85v0l-0.5 0.1c-0.767 0.133-1.25 0.217-1.45 0.25-0.2 0.033-0.667 0.133-1.4 0.3-0.733 0.167-1.24 0.317-1.52 0.45-0.287 0.133-0.687 0.34-1.2 0.62-0.52 0.287-0.897 0.58-1.13 0.88v0c-0.6 0.933-0.9 1.917-0.9 2.95 0 1.033 0.333 1.893 1 2.58 0.667 0.68 1.527 1.02 2.58 1.02 1.047 0 1.88-0.133 2.5-0.4 0.613-0.267 1.07-0.567 1.37-0.9 0.3-0.333 0.533-0.783 0.7-1.35v0c0.2-0.633 0.3-1.45 0.3-2.45v0-3.6c0-0.3-0.117-0.45-0.35-0.45zM74.15 51.55l-3.55-0.1-3.55 0.1c-1.333 0-2-0.227-2-0.68 0-0.447 0.25-0.753 0.75-0.92v0c0.033 0 0.1-0.017 0.2-0.05v0c0.767-0.267 1.267-0.667 1.5-1.2 0.233-0.533 0.35-3.117 0.35-7.75v0-4.4c0-0.967-0.117-1.733-0.35-2.3-0.233-0.567-0.45-0.917-0.65-1.05-0.2-0.133-0.54-0.243-1.02-0.33-0.487-0.08-0.837-0.163-1.05-0.25-0.22-0.08-0.33-0.213-0.33-0.4 0-0.18 0.043-0.32 0.13-0.42 0.08-0.1 0.247-0.21 0.5-0.33 0.247-0.113 0.503-0.22 0.77-0.32v0c0.933-0.267 1.7-0.533 2.3-0.8 0.6-0.267 1.06-0.467 1.38-0.6 0.313-0.133 0.52-0.233 0.62-0.3v0c0.233-0.1 0.517-0.15 0.85-0.15v0c0.5 0 0.75 0.317 0.75 0.95v0l-0.3 2.4v13.7c0 1 0.16 1.783 0.48 2.35 0.313 0.567 0.647 0.917 1 1.05 0.347 0.133 0.753 0.217 1.22 0.25 0.467 0.033 0.767 0.05 0.9 0.05v0c0.467 0.067 0.7 0.3 0.7 0.7v0c0 0.567-0.283 0.85-0.85 0.85v0zM69.75 24.6c-0.667 0-1.24-0.35-1.72-1.05-0.487-0.7-0.73-1.277-0.73-1.73 0-0.447 0.293-1.03 0.88-1.75 0.58-0.713 1.13-1.07 1.65-1.07 0.513 0 1.02 0.34 1.52 1.02 0.5 0.687 0.75 1.297 0.75 1.83 0 0.533-0.317 1.123-0.95 1.77-0.633 0.653-1.1 0.98-1.4 0.98zM81.4 45.35v-3.7l0.2-21.25c0-0.767-0.123-1.46-0.37-2.08-0.253-0.613-0.53-0.987-0.83-1.12-0.3-0.133-0.967-0.2-2-0.2v0c-0.367 0-0.55-0.117-0.55-0.35 0-0.233 0.027-0.4 0.08-0.5 0.047-0.1 0.153-0.193 0.32-0.28 0.167-0.08 0.367-0.153 0.6-0.22v0c0.967-0.2 1.967-0.55 3-1.05v0c1.633-0.767 2.7-1.15 3.2-1.15v0c0.4 0 0.6 0.317 0.6 0.95v0c0 0.133-0.033 0.517-0.1 1.15v0c-0.2 1.967-0.3 4.117-0.3 6.45v0 2.8l-0.1 6.65v14.9c0 0.7 0.06 1.273 0.18 1.72 0.113 0.453 0.497 0.887 1.15 1.3 0.647 0.42 1.553 0.63 2.72 0.63v0c0.167 0 0.317 0.083 0.45 0.25 0.133 0.167 0.2 0.333 0.2 0.5v0c0 0.467-0.517 0.7-1.55 0.7v0l-5.05-0.35c-0.867 0-1.69 0.067-2.47 0.2-0.787 0.133-1.303 0.2-1.55 0.2-0.253 0-0.453-0.057-0.6-0.17-0.153-0.12-0.23-0.273-0.23-0.46 0-0.18 0.077-0.33 0.23-0.45 0.147-0.113 0.387-0.203 0.72-0.27v0c1-0.267 1.6-0.677 1.8-1.23 0.2-0.547 0.3-1.303 0.3-2.27v0zM100.65 60.75h-0.15l-2.15 0.05c-0.633 0-0.95-0.217-0.95-0.65v0c0-0.1 0.377-0.617 1.13-1.55 0.747-0.933 1.503-2.083 2.27-3.45 0.767-1.367 1.15-2.573 1.15-3.62 0-1.053-0.95-3.647-2.85-7.78-1.9-4.133-3.55-7.517-4.95-10.15v0c-0.367-0.667-0.74-1.183-1.12-1.55-0.387-0.367-0.697-0.567-0.93-0.6v0c-0.533-0.067-0.8-0.317-0.8-0.75 0-0.433 0.333-0.65 1-0.65v0l5.35 0.1 2.85-0.1c0.233 0 0.443 0.057 0.63 0.17 0.18 0.12 0.27 0.247 0.27 0.38v0c0 0.6-0.4 0.9-1.2 0.9v0h-0.75c-0.533 0-0.8 0.417-0.8 1.25v0c0 1 0.883 3.4 2.65 7.2v0c0.267 0.567 0.667 1.467 1.2 2.7v0c1 2.267 1.6 3.4 1.8 3.4 0.2 0 0.977-1.917 2.33-5.75 1.347-3.833 2.02-6.117 2.02-6.85 0-0.733-0.157-1.25-0.47-1.55-0.32-0.3-0.68-0.45-1.08-0.45v0c-1.033 0.067-1.55-0.217-1.55-0.85v0c0-0.4 0.317-0.6 0.95-0.6v0l3.6 0.05 3.1-0.05c0.7 0 1.05 0.217 1.05 0.65v0c0 0.333-0.29 0.573-0.87 0.72-0.587 0.153-0.98 0.363-1.18 0.63v0c-0.533 0.767-1.433 2.867-2.7 6.3v0l-4.45 11.85c-0.367 0.967-0.733 1.96-1.1 2.98-0.367 1.013-0.667 1.837-0.9 2.47-0.233 0.633-0.467 1.267-0.7 1.9-0.233 0.633-0.417 1.127-0.55 1.48-0.133 0.347-0.267 0.67-0.4 0.97v0c-0.267 0.533-0.517 0.8-0.75 0.8z" fill="#61777f" fill-rule="nonzero" stroke="none" stroke-width="1" stroke-linecap="butt" stroke-linejoin="miter" stroke-miterlimit="10" stroke-dasharray="" stroke-dashoffset="0" font-family="none" font-weight="none" font-size="none" text-anchor="none" style="mix-blend-mode: normal" data-fill-palette-color="secondary" opacity="1"></path><path d="M5.95 85.25v-2.85l0.05-5.4v-2.3c0-1.467-0.057-2.643-0.17-3.53-0.12-0.88-0.57-1.537-1.35-1.97-0.787-0.433-1.563-0.667-2.33-0.7-0.767-0.033-1.15-0.29-1.15-0.77 0-0.487 0.467-0.73 1.4-0.73v0l5.65 0.2 4.4-0.1c0.9 0 1.35 0.233 1.35 0.7v0c0 0.267-0.767 0.717-2.3 1.35v0c-1.067 0.433-1.6 2.35-1.6 5.75v0l-0.15 18.5c0 2.8 0.393 4.767 1.18 5.9 0.78 1.133 1.603 1.7 2.47 1.7v0l1 0.05c0.233 0 0.467 0.057 0.7 0.17 0.233 0.12 0.35 0.313 0.35 0.58v0c0 0.467-0.417 0.7-1.25 0.7v0l-4.75-0.2-5.5 0.25c-1.5 0-2.25-0.25-2.25-0.75v0c0-0.467 0.517-0.767 1.55-0.9v0c0.4-0.033 0.817-0.243 1.25-0.63 0.433-0.38 0.71-0.813 0.83-1.3 0.113-0.48 0.247-2.497 0.4-6.05 0.147-3.547 0.22-6.103 0.22-7.67zM28.8 102.5v0l-3.65-0.2c-0.867 0-2.017 0.033-3.45 0.1v0l-2.15 0.1c-0.5 0-0.75-0.15-0.75-0.45 0-0.3 0.083-0.483 0.25-0.55 0.167-0.067 0.377-0.117 0.63-0.15 0.247-0.033 0.487-0.133 0.72-0.3v0c0.633-0.4 0.983-1.61 1.05-3.63 0.067-2.013 0.1-3.337 0.1-3.97v0-7.2c0-1.067-0.19-1.783-0.57-2.15-0.387-0.367-0.913-0.55-1.58-0.55v0h-0.5c-0.633 0-0.95-0.183-0.95-0.55v0c0-0.333 0.36-0.55 1.08-0.65 0.713-0.1 1.28-0.21 1.7-0.33 0.413-0.113 0.963-0.313 1.65-0.6 0.68-0.28 1.23-0.52 1.65-0.72 0.413-0.2 0.687-0.3 0.82-0.3v0h0.1c0.3 0 0.45 0.2 0.45 0.6v0l-0.1 2.15c0 0.867 0.067 1.3 0.2 1.3 0.133 0 0.267-0.083 0.4-0.25v0c0.5-0.7 1.167-1.3 2-1.8v0c1.5-0.933 2.933-1.4 4.3-1.4 1.367 0 2.583 0.207 3.65 0.62 1.067 0.42 1.9 0.937 2.5 1.55 0.6 0.62 1.1 1.33 1.5 2.13v0c0.667 1.333 1 2.7 1 4.1v0 0.5l0.05 2.65v5.1c0 1.267 0.177 2.14 0.53 2.62 0.347 0.487 1.187 0.83 2.52 1.03v0c0.667 0.1 1 0.35 1 0.75v0c0 0.333-0.333 0.5-1 0.5v0l-4.1-0.25-3.85 0.2c-0.667 0-1-0.217-1-0.65v0c0-0.3 0.2-0.5 0.6-0.6v0l0.65-0.15c0.733-0.233 1.1-1.35 1.1-3.35v0-6.75c0-2.567-0.633-4.507-1.9-5.82-1.267-1.32-2.7-1.98-4.3-1.98-1.6 0-2.933 0.383-4 1.15-1.067 0.767-1.717 1.483-1.95 2.15-0.233 0.667-0.35 3.217-0.35 7.65v0 1.9c0 1.667 0.177 2.9 0.53 3.7 0.347 0.8 1.12 1.25 2.32 1.35v0c0.333 0 0.76 0.057 1.28 0.17 0.513 0.12 0.77 0.313 0.77 0.58v0c0 0.433-0.317 0.65-0.95 0.65zM62.35 82.45v0l0.2 3c0 0.567-0.067 0.95-0.2 1.15-0.133 0.2-0.323 0.3-0.57 0.3-0.253 0-0.52-0.24-0.8-0.72-0.287-0.487-0.603-1.013-0.95-1.58-0.353-0.567-0.92-1.093-1.7-1.58-0.787-0.48-1.68-0.72-2.68-0.72-1 0-1.817 0.24-2.45 0.72-0.633 0.487-0.95 1.013-0.95 1.58 0 0.567 0.05 1.023 0.15 1.37 0.1 0.353 0.277 0.663 0.53 0.93 0.247 0.267 0.463 0.49 0.65 0.67 0.18 0.187 0.487 0.38 0.92 0.58 0.433 0.2 0.76 0.34 0.98 0.42 0.213 0.087 0.57 0.23 1.07 0.43v0c3.033 1.067 4.983 2.107 5.85 3.12 0.867 1.02 1.3 2.48 1.3 4.38 0 1.9-0.883 3.65-2.65 5.25v0c-1.2 1.033-2.85 1.55-4.95 1.55v0c-1.433 0-3.033-0.35-4.8-1.05v0c-0.5-0.2-0.79-0.31-0.87-0.33-0.087-0.013-0.22-0.053-0.4-0.12-0.187-0.067-0.32-0.11-0.4-0.13-0.087-0.013-0.197-0.053-0.33-0.12-0.133-0.067-0.223-0.127-0.27-0.18-0.053-0.047-0.113-0.12-0.18-0.22v0c-0.1-0.167-0.15-0.433-0.15-0.8v0-4.35c0-0.367 0.077-0.677 0.23-0.93 0.147-0.247 0.353-0.37 0.62-0.37 0.267 0 0.46 0.073 0.58 0.22 0.113 0.153 0.22 0.463 0.32 0.93 0.1 0.467 0.2 0.8 0.3 1v0c1.233 3.067 2.967 4.6 5.2 4.6v0c1.033 0 2.017-0.277 2.95-0.83 0.933-0.547 1.4-1.413 1.4-2.6 0-1.18-0.383-2.137-1.15-2.87-0.767-0.733-1.7-1.31-2.8-1.73-1.1-0.413-2.2-0.847-3.3-1.3-1.1-0.447-2.033-1.113-2.8-2-0.767-0.88-1.15-1.987-1.15-3.32v0c0-1.867 0.75-3.367 2.25-4.5 1.5-1.133 3.15-1.7 4.95-1.7 1.8 0 3.167 0.14 4.1 0.42 0.933 0.287 1.493 0.547 1.68 0.78 0.18 0.233 0.27 0.45 0.27 0.65zM77.1 102.8l-3.55-0.1-3.55 0.1c-1.333 0-2-0.227-2-0.68 0-0.447 0.25-0.753 0.75-0.92v0c0.033 0 0.1-0.017 0.2-0.05v0c0.767-0.267 1.267-0.667 1.5-1.2 0.233-0.533 0.35-3.117 0.35-7.75v0-4.4c0-0.967-0.117-1.733-0.35-2.3-0.233-0.567-0.45-0.917-0.65-1.05-0.2-0.133-0.54-0.243-1.02-0.33-0.487-0.08-0.837-0.163-1.05-0.25-0.22-0.08-0.33-0.213-0.33-0.4 0-0.18 0.043-0.32 0.13-0.42 0.08-0.1 0.247-0.21 0.5-0.33 0.247-0.113 0.503-0.22 0.77-0.32v0c0.933-0.267 1.7-0.533 2.3-0.8 0.6-0.267 1.06-0.467 1.38-0.6 0.313-0.133 0.52-0.233 0.62-0.3v0c0.233-0.1 0.517-0.15 0.85-0.15v0c0.5 0 0.75 0.317 0.75 0.95v0l-0.3 2.4v13.7c0 1 0.16 1.783 0.48 2.35 0.313 0.567 0.647 0.917 1 1.05 0.347 0.133 0.753 0.217 1.22 0.25 0.467 0.033 0.767 0.05 0.9 0.05v0c0.467 0.067 0.7 0.3 0.7 0.7v0c0 0.567-0.283 0.85-0.85 0.85v0zM72.7 75.85c-0.667 0-1.24-0.35-1.72-1.05-0.487-0.7-0.73-1.277-0.73-1.73 0-0.447 0.293-1.03 0.88-1.75 0.58-0.713 1.13-1.07 1.65-1.07 0.513 0 1.02 0.34 1.52 1.02 0.5 0.687 0.75 1.297 0.75 1.83 0 0.533-0.317 1.123-0.95 1.77-0.633 0.653-1.1 0.98-1.4 0.98zM86.6 112.43c-1.3-0.287-2.473-0.863-3.52-1.73-1.053-0.867-1.58-1.867-1.58-3 0-1.133 0.3-2.007 0.9-2.62 0.6-0.62 1.2-1.08 1.8-1.38 0.6-0.3 0.9-0.49 0.9-0.57 0-0.087-0.083-0.197-0.25-0.33-0.167-0.133-0.367-0.283-0.6-0.45v0c-0.533-0.433-0.8-1.16-0.8-2.18 0-1.013 0.217-1.887 0.65-2.62 0.433-0.733 0.867-1.283 1.3-1.65 0.433-0.367 0.65-0.61 0.65-0.73 0-0.113-0.173-0.32-0.52-0.62-0.353-0.3-0.747-0.64-1.18-1.02-0.433-0.387-0.823-1.023-1.17-1.91-0.353-0.88-0.53-1.813-0.53-2.8 0-0.98 0.127-1.86 0.38-2.64 0.247-0.787 0.663-1.607 1.25-2.46 0.58-0.847 1.48-1.537 2.7-2.07 1.213-0.533 2.563-0.8 4.05-0.8 1.48 0 2.687 0.167 3.62 0.5 0.933 0.333 1.627 0.667 2.08 1 0.447 0.333 0.77 0.5 0.97 0.5 0.2 0 1.017-0.3 2.45-0.9v0c0.467-0.2 0.817-0.65 1.05-1.35 0.233-0.7 0.483-1.05 0.75-1.05v0c0.433 0 0.65 0.133 0.65 0.4v0c0 0.8-0.117 1.657-0.35 2.57-0.233 0.92-0.517 1.64-0.85 2.16-0.333 0.513-0.983 0.97-1.95 1.37v0c0.367 1 0.55 1.833 0.55 2.5v0c0 2.133-0.8 3.933-2.4 5.4-1.6 1.467-3.55 2.2-5.85 2.2v0c-0.867 0-1.69-0.077-2.47-0.23-0.787-0.147-1.253-0.22-1.4-0.22-0.153 0-0.363 0.033-0.63 0.1-0.267 0.067-0.6 0.3-1 0.7-0.4 0.4-0.6 0.95-0.6 1.65v0c0 1.133 0.517 1.85 1.55 2.15 1.033 0.3 2.75 0.45 5.15 0.45v0h2.3c4.833 0 7.25 1.467 7.25 4.4v0c0 1.033-0.117 1.817-0.35 2.35v0c-0.633 1.633-1.933 2.933-3.9 3.9-1.967 0.967-4.25 1.45-6.85 1.45v0c-1.5 0-2.9-0.14-4.2-0.42zM84.4 107.05v0c0 1.467 0.617 2.577 1.85 3.33 1.233 0.747 2.817 1.12 4.75 1.12 1.933 0 3.727-0.423 5.38-1.27 1.647-0.853 2.47-1.947 2.47-3.28v0c0-1.2-0.583-1.95-1.75-2.25v0c-0.9-0.2-2.167-0.3-3.8-0.3v0h-0.45c-1.067 0-2.367-0.117-3.9-0.35v0l-2.25-0.35c-0.333 0-0.8 0.333-1.4 1-0.6 0.667-0.9 1.45-0.9 2.35zM91.18 81.95c-1.42 0-2.563 0.523-3.43 1.57-0.867 1.053-1.3 2.563-1.3 4.53 0 1.967 0.477 3.617 1.43 4.95 0.947 1.333 2.153 2 3.62 2 1.467 0 2.6-0.573 3.4-1.72 0.8-1.153 1.2-2.613 1.2-4.38 0-1.767-0.467-3.367-1.4-4.8-0.933-1.433-2.107-2.15-3.52-2.15zM110.55 102.25v0l-3.55 0.25c-0.833 0-1.267-0.05-1.3-0.15-0.033-0.1-0.05-0.217-0.05-0.35v0c0-0.333 0.2-0.55 0.6-0.65v0c0.967-0.267 1.593-0.693 1.88-1.28 0.28-0.58 0.42-1.437 0.42-2.57v0l0.2-17.05v-2.45c0-4.533-0.1-7.3-0.3-8.3-0.2-1-0.8-1.5-1.8-1.5v0h-0.65l-0.2-0.05c-0.567 0-0.85-0.15-0.85-0.45 0-0.3 0.177-0.54 0.53-0.72 0.347-0.187 0.847-0.363 1.5-0.53 0.647-0.167 1.57-0.517 2.77-1.05 1.2-0.533 1.95-0.8 2.25-0.8v0c0.433 0 0.65 0.383 0.65 1.15v0c0 0.167-0.057 0.567-0.17 1.2-0.12 0.633-0.187 1.857-0.2 3.67-0.02 1.82-0.053 3.77-0.1 5.85-0.053 2.087-0.097 3.497-0.13 4.23v0c-0.067 1.4-0.1 2.383-0.1 2.95 0 0.567 0.133 0.85 0.4 0.85v0c0.067 0 0.41-0.31 1.03-0.93 0.613-0.613 1.463-1.23 2.55-1.85 1.08-0.613 2.237-0.92 3.47-0.92v0c2.7 0 4.8 0.8 6.3 2.4 1.5 1.6 2.25 4.083 2.25 7.45v0 7.25c0 0.9 0.167 1.6 0.5 2.1 0.333 0.5 0.717 0.767 1.15 0.8v0c1.8 0.167 2.7 0.517 2.7 1.05 0 0.533-0.517 0.8-1.55 0.8v0l-4.2-0.25-3.85 0.15c-0.767 0-1.15-0.167-1.15-0.5v0c0-0.6 0.45-0.9 1.35-0.9v0c0.333 0 0.643-0.183 0.93-0.55 0.28-0.367 0.42-0.933 0.42-1.7v0l0.05-1.3 0.05-7c0-2.033-0.617-3.793-1.85-5.28-1.233-1.48-2.657-2.22-4.27-2.22-1.62 0-3.263 0.65-4.93 1.95v0c-0.6 0.467-0.983 1.223-1.15 2.27-0.167 1.053-0.25 3.38-0.25 6.98v0 1.15c0 1.5 0.117 2.717 0.35 3.65v0c0.367 1.3 1.283 2 2.75 2.1v0c0.467 0.033 0.827 0.09 1.08 0.17 0.247 0.087 0.37 0.263 0.37 0.53v0c0 0.4-0.183 0.6-0.55 0.6v0l-1.3-0.05c-0.867-0.033-1.74-0.077-2.62-0.13-0.887-0.047-1.363-0.07-1.43-0.07zM135.95 83.95v0l-0.95 0.05c-0.567 0-0.85-0.233-0.85-0.7v0c0-0.333 0.15-0.617 0.45-0.85v0c1.267-0.833 2.533-2.083 3.8-3.75v0c0.533-0.767 0.96-1.327 1.28-1.68 0.313-0.347 0.637-0.52 0.97-0.52 0.333 0 0.5 0.383 0.5 1.15v0c0 0-0.067 0.95-0.2 2.85v0c0 0.467 0.093 0.75 0.28 0.85 0.18 0.1 0.77 0.15 1.77 0.15v0h1.75c1.5 0 2.417-0.083 2.75-0.25v0c0.6-0.3 0.967-0.45 1.1-0.45v0c0.333 0 0.5 0.183 0.5 0.55v0c0 0.267-0.217 0.79-0.65 1.57-0.433 0.787-0.75 1.18-0.95 1.18v0c-1.5 0-2.55-0.033-3.15-0.1-0.6-0.067-1-0.11-1.2-0.13-0.2-0.013-0.373-0.03-0.52-0.05-0.153-0.013-0.263-0.02-0.33-0.02v0l-0.1-0.05c-0.633 0-1.04 0.1-1.22 0.3-0.187 0.2-0.28 0.65-0.28 1.35v0l-0.2 9.3c0 2.167 0.277 3.673 0.83 4.52 0.547 0.853 1.703 1.28 3.47 1.28v0c0.7 0 1.477-0.16 2.33-0.48 0.847-0.313 1.303-0.47 1.37-0.47v0c0.333 0 0.5 0.217 0.5 0.65 0 0.433-0.573 1.007-1.72 1.72-1.153 0.72-2.397 1.08-3.73 1.08v0c-4.5 0-6.75-1.95-6.75-5.85v0-0.75l0.2-11.65c0-0.333-0.067-0.55-0.2-0.65-0.133-0.1-0.417-0.15-0.85-0.15zM166.3 82.45v0l0.2 3c0 0.567-0.067 0.95-0.2 1.15-0.133 0.2-0.327 0.3-0.58 0.3-0.247 0-0.51-0.24-0.79-0.72-0.287-0.487-0.607-1.013-0.96-1.58-0.347-0.567-0.91-1.093-1.69-1.58-0.787-0.48-1.68-0.72-2.68-0.72-1 0-1.817 0.24-2.45 0.72-0.633 0.487-0.95 1.013-0.95 1.58 0 0.567 0.05 1.023 0.15 1.37 0.1 0.353 0.277 0.663 0.53 0.93 0.247 0.267 0.463 0.49 0.65 0.67 0.18 0.187 0.487 0.38 0.92 0.58 0.433 0.2 0.76 0.34 0.98 0.42 0.213 0.087 0.57 0.23 1.07 0.43v0c3.033 1.067 4.983 2.107 5.85 3.12 0.867 1.02 1.3 2.48 1.3 4.38 0 1.9-0.883 3.65-2.65 5.25v0c-1.2 1.033-2.85 1.55-4.95 1.55v0c-1.433 0-3.033-0.35-4.8-1.05v0c-0.5-0.2-0.79-0.31-0.87-0.33-0.087-0.013-0.223-0.053-0.41-0.12-0.18-0.067-0.31-0.11-0.39-0.13-0.087-0.013-0.197-0.053-0.33-0.12-0.133-0.067-0.227-0.127-0.28-0.18-0.047-0.047-0.103-0.12-0.17-0.22v0c-0.1-0.167-0.15-0.433-0.15-0.8v0-4.35c0-0.367 0.077-0.677 0.23-0.93 0.147-0.247 0.353-0.37 0.62-0.37 0.267 0 0.46 0.073 0.58 0.22 0.113 0.153 0.22 0.463 0.32 0.93 0.1 0.467 0.2 0.8 0.3 1v0c1.233 3.067 2.967 4.6 5.2 4.6v0c1.033 0 2.017-0.277 2.95-0.83 0.933-0.547 1.4-1.413 1.4-2.6 0-1.18-0.383-2.137-1.15-2.87-0.767-0.733-1.7-1.31-2.8-1.73-1.1-0.413-2.2-0.847-3.3-1.3-1.1-0.447-2.033-1.113-2.8-2-0.767-0.88-1.15-1.987-1.15-3.32v0c0-1.867 0.75-3.367 2.25-4.5 1.5-1.133 3.15-1.7 4.95-1.7 1.8 0 3.167 0.14 4.1 0.42 0.933 0.287 1.493 0.547 1.68 0.78 0.18 0.233 0.27 0.45 0.27 0.65z" fill="#87898c" fill-rule="nonzero" stroke="none" stroke-width="1" stroke-linecap="butt" stroke-linejoin="miter" stroke-miterlimit="10" stroke-dasharray="" stroke-dashoffset="0" font-family="none" font-weight="none" font-size="none" text-anchor="none" style="mix-blend-mode: normal" data-fill-palette-color="accent" opacity="1"></path></g></svg></g></svg></g></svg></g></svg></g></svg></g><defs></defs></svg><rect width="267.94068292682925" height="247.2" fill="none" stroke="none" visibility="hidden"></rect></g></svg></g></svg>